<?xml version="1.0" standalone="no"?>
<!DOCTYPE svg PUBLIC "-//W3C//DTD SVG 20010904//EN"
 "http://www.w3.org/TR/2001/REC-SVG-20010904/DTD/svg10.dtd">
<svg version="1.0" xmlns="http://www.w3.org/2000/svg"
 width="220.000000pt" height="220.000000pt" viewBox="0 0 220.000000 220.000000"
 preserveAspectRatio="xMidYMid meet">
<metadata>
Created by potrace 1.11, written by Peter Selinger 2001-2013
</metadata>
<g transform="translate(0.000000,220.000000) scale(0.100000,-0.100000)"
fill="#000000" stroke="none">
<path d="M960 2153 c-151 -22 -325 -90 -454 -178 -114 -77 -248 -224 -314
-345 -34 -64 -93 -200 -86 -200 2 0 0 -8 -5 -18 -5 -10 -12 -38 -16 -62 -4
-25 -8 -47 -10 -50 -19 -32 -19 -284 0 -370 4 -14 8 -38 11 -53 3 -16 12 -47
20 -69 7 -22 11 -45 7 -51 -3 -5 -1 -7 4 -4 10 6 29 -37 25 -55 -1 -5 4 -8 11
-8 8 0 7 -4 -3 -10 -13 -8 -12 -10 3 -10 10 0 17 -8 17 -20 0 -11 5 -20 11
-20 8 0 7 -6 -2 -17 -8 -9 -9 -14 -4 -11 6 4 17 3 25 -3 13 -7 13 -9 1 -9 -11
0 -10 -4 4 -13 12 -9 15 -19 10 -28 -5 -8 -5 -11 0 -7 8 7 19 -2 45 -37 11
-16 11 -17 0 -8 -8 7 -19 13 -25 13 -5 0 6 -11 26 -23 28 -17 35 -27 32 -47
-2 -19 -1 -21 6 -10 8 12 14 11 35 -10 24 -21 25 -26 12 -45 -12 -18 -12 -22
-1 -22 8 0 12 4 10 8 -6 9 21 20 29 12 3 -4 1 -11 -4 -18 -6 -8 -5 -18 6 -31
14 -18 15 -18 4 3 -7 16 -7 23 0 23 5 0 10 -5 10 -10 0 -6 3 -9 8 -9 22 4 30
-3 25 -21 -3 -11 0 -20 6 -20 6 0 11 -6 11 -14 0 -8 9 -14 19 -13 11 0 17 5
15 9 -3 5 -10 5 -16 2 -6 -4 -8 -2 -5 3 4 6 0 14 -9 17 -9 4 -14 9 -11 12 4 5
61 -34 120 -82 9 -7 17 -10 17 -6 0 4 7 -2 15 -12 11 -14 15 -16 15 -5 0 12 2
12 10 -1 5 -8 7 -24 4 -35 -4 -16 -3 -17 5 -5 5 8 13 11 17 7 4 -3 1 -15 -7
-24 -13 -16 -12 -17 3 -5 13 10 17 10 21 0 4 -10 7 -10 18 1 8 8 9 11 3 8 -7
-4 -19 4 -28 18 -14 21 -14 24 -1 19 8 -4 15 -13 15 -21 0 -12 3 -13 14 -4 12
10 14 7 11 -18 -3 -25 -2 -29 9 -18 8 6 13 16 11 22 -1 5 0 7 2 2 3 -4 8 -5
13 -2 4 3 11 -2 14 -11 3 -8 2 -12 -4 -9 -6 3 -10 1 -10 -5 0 -6 -5 -8 -12 -4
-7 4 -8 3 -4 -4 5 -9 13 -9 26 -2 13 7 21 7 25 0 3 -5 1 -10 -4 -10 -6 0 -11
-5 -11 -11 0 -8 5 -7 15 1 14 11 14 16 -2 39 -16 25 -16 26 3 11 30 -23 34
-33 21 -50 -10 -13 -10 -13 5 -2 14 11 19 10 32 -10 9 -12 16 -17 16 -11 0 7
-10 21 -22 33 -12 11 -18 23 -15 27 4 3 7 1 7 -6 0 -8 7 -10 19 -6 11 3 25 -1
34 -9 11 -11 17 -12 27 -3 10 9 11 9 6 0 -4 -8 2 -11 21 -9 16 2 34 -1 41 -6
8 -7 12 -7 12 1 0 6 5 11 11 11 5 0 8 -4 4 -9 -3 -5 0 -13 6 -17 6 -3 14 -2
18 4 8 12 53 10 64 -3 4 -7 10 -6 15 1 8 12 51 13 69 1 6 -4 14 -1 16 5 4 10
6 10 6 0 1 -10 5 -10 24 0 12 7 33 13 47 15 l25 2 -24 -9 c-13 -6 -22 -12 -20
-13 2 -1 13 -10 25 -20 17 -14 21 -14 21 -2 0 8 -4 12 -9 9 -4 -3 -8 0 -8 5 0
6 7 11 16 11 9 0 12 5 8 12 -4 7 -3 8 5 4 7 -4 9 -17 6 -29 -5 -17 -4 -19 4
-7 6 8 11 10 11 5 0 -6 10 -11 23 -12 l22 -1 -22 10 c-25 12 -37 45 -16 45 8
0 12 -7 8 -16 -3 -9 4 -5 15 9 13 16 18 18 14 7 -5 -13 -2 -16 10 -11 8 3 14
11 13 17 -1 7 6 11 17 9 12 -2 16 1 10 9 -4 8 -3 10 5 5 6 -4 18 -2 26 4 8 7
15 9 15 5 0 -4 6 -2 14 4 8 7 24 14 37 16 12 3 26 10 31 17 6 10 8 10 8 0 0
-7 5 -10 10 -7 6 4 8 10 5 15 -3 5 4 7 15 5 11 -2 20 1 20 6 0 6 5 7 11 3 8
-4 7 -9 -2 -15 -7 -4 -16 -6 -20 -3 -4 2 -10 0 -14 -6 -3 -5 1 -10 10 -10 9 0
13 -5 9 -11 -4 -7 1 -7 16 1 12 6 19 14 16 17 -3 4 -1 12 6 20 9 11 14 11 32
-4 20 -18 20 -17 6 2 -8 11 -16 22 -17 24 -1 2 -9 -2 -18 -9 -10 -8 -15 -9
-15 -1 0 6 5 11 11 11 5 0 8 4 5 9 -4 5 4 7 16 3 13 -3 19 -1 15 5 -8 12 20
27 42 24 7 -1 10 2 6 8 -3 7 0 8 9 5 11 -4 14 0 11 16 -3 18 -2 20 10 10 18
-15 20 -24 3 -14 -7 4 -8 3 -4 -4 10 -17 29 -15 23 2 -3 7 0 19 6 26 10 10 8
12 -8 6 -16 -5 -15 -3 5 13 19 15 29 17 43 9 22 -11 43 10 27 26 -4 4 -6 14
-3 22 4 10 8 10 18 1 7 -6 11 -17 8 -23 -2 -7 0 -15 6 -19 7 -4 8 0 4 11 -5
13 -3 15 8 9 8 -5 7 -1 -3 12 -10 11 -18 22 -18 26 0 10 54 35 66 30 6 -2 14
4 18 13 5 13 3 14 -6 6 -9 -7 -16 -6 -24 2 -8 9 -5 16 12 29 16 12 25 14 30 5
5 -7 3 -8 -7 -3 -8 5 -10 4 -6 0 10 -12 37 -15 37 -5 0 5 -6 10 -12 13 -10 3
-10 7 0 19 7 9 12 20 10 24 -4 17 14 54 23 48 6 -4 3 -15 -8 -27 -14 -18 -12
-17 10 2 27 24 36 38 17 26 -5 -3 -10 1 -10 10 0 9 4 14 9 10 5 -3 12 -1 16 5
4 6 10 8 14 6 12 -8 11 37 -2 52 -10 13 -8 14 13 8 18 -5 21 -4 11 3 -15 10
-26 45 -11 36 11 -7 22 24 13 38 -4 6 0 8 10 4 10 -3 17 -2 17 3 0 6 -6 10
-12 10 -9 0 -9 3 -3 8 10 6 13 20 17 69 1 7 4 10 8 8 3 -2 7 11 8 28 1 18 3
41 6 52 2 11 5 22 5 25 1 3 5 -1 10 -8 7 -11 9 -10 14 3 4 9 3 13 -3 10 -10
-6 -14 6 -11 40 1 11 2 41 2 68 1 26 5 50 11 53 5 3 4 11 -2 20 -7 7 -10 36
-8 68 1 30 0 52 -4 49 -5 -2 -8 4 -9 14 -1 42 -19 115 -43 178 -6 17 -11 32
-11 35 -1 3 -9 22 -18 44 -9 21 -17 42 -17 47 0 5 -5 9 -11 9 -5 0 -8 4 -5 8
2 4 -23 48 -56 97 -162 240 -400 395 -684 449 -65 12 -253 17 -314 9z m1080
-1507 c0 -18 -26 -40 -34 -28 -3 6 1 13 10 16 8 3 12 10 9 16 -3 5 -1 10 4 10
6 0 11 -6 11 -14z m-85 -126 c-3 -5 -11 -10 -16 -10 -6 0 -7 5 -4 10 3 6 11
10 16 10 6 0 7 -4 4 -10z m-55 -74 c0 -2 -7 -7 -16 -10 -8 -3 -12 -2 -9 4 6
10 25 14 25 6z m-78 -90 c7 4 8 2 4 -5 -9 -13 -26 -5 -25 12 0 9 2 8 6 -1 2
-6 10 -9 15 -6z"/>
<path d="M2110 880 c0 -5 5 -10 11 -10 5 0 7 5 4 10 -3 6 -8 10 -11 10 -2 0
-4 -4 -4 -10z"/>
<path d="M2115 840 c-3 -5 -1 -10 4 -10 6 0 11 5 11 10 0 6 -2 10 -4 10 -3 0
-8 -4 -11 -10z"/>
<path d="M2095 811 c-3 -5 -2 -12 3 -15 5 -3 9 1 9 9 0 17 -3 19 -12 6z"/>
<path d="M2067 707 c-3 -8 1 -14 9 -14 16 0 19 13 5 21 -5 3 -11 0 -14 -7z"/>
<path d="M1995 539 c-4 -6 -5 -12 -2 -15 2 -3 7 2 10 11 7 17 1 20 -8 4z"/>
<path d="M190 536 c0 -2 8 -10 18 -17 15 -13 16 -12 3 4 -13 16 -21 21 -21 13z"/>
<path d="M313 416 c0 -8 5 -14 11 -13 6 1 10 -4 8 -11 -1 -8 2 -11 8 -7 8 5 6
13 -6 26 -21 23 -21 23 -21 5z"/>
<path d="M1866 401 c9 -9 34 -9 34 -1 0 5 -9 8 -20 7 -10 -1 -17 -3 -14 -6z"/>
<path d="M1779 338 c0 -2 -2 -14 -5 -28 -3 -23 -2 -23 10 -8 7 10 17 14 22 10
4 -4 2 1 -5 11 -12 16 -20 21 -22 15z"/>
<path d="M407 311 c-4 -17 -3 -21 5 -13 5 5 8 16 6 23 -3 8 -7 3 -11 -10z"/>
<path d="M495 249 c-9 -13 0 -22 23 -24 26 -2 43 -15 36 -27 -5 -7 -2 -8 5 -4
18 11 -16 47 -37 39 -9 -4 -13 -2 -8 5 3 6 2 13 -3 16 -5 4 -13 1 -16 -5z"/>
<path d="M1670 239 c-10 -17 -9 -24 3 -36 10 -11 17 -12 22 -4 3 6 1 10 -6 9
-6 -2 -14 3 -17 11 -3 10 0 12 11 8 22 -8 30 8 13 23 -12 9 -17 7 -26 -11z"/>
<path d="M1716 248 c3 -4 11 -5 19 -1 21 7 19 12 -4 10 -11 0 -18 -5 -15 -9z"/>
<path d="M576 195 c-3 -10 -4 -20 -1 -23 3 -3 5 1 5 9 0 12 2 11 10 -1 8 -13
11 -13 22 -1 8 9 9 12 1 7 -6 -3 -16 1 -21 10 -8 15 -10 15 -16 -1z"/>
<path d="M1630 181 c0 -6 4 -13 10 -16 6 -3 7 1 4 9 -7 18 -14 21 -14 7z"/>
<path d="M1530 163 c0 -6 -8 -10 -17 -8 -10 1 -27 -2 -38 -8 -11 -6 -24 -11
-28 -12 -4 0 -11 -5 -15 -11 -4 -6 -17 -10 -29 -9 -12 1 -20 -2 -18 -6 7 -11
-23 -32 -35 -24 -5 3 -10 1 -10 -6 0 -6 8 -9 20 -6 11 3 20 0 20 -6 0 -7 4 -6
9 3 6 8 7 18 4 23 -7 11 30 5 39 -7 3 -5 13 -11 21 -12 15 -2 17 12 4 33 -4 6
-3 14 3 18 5 3 10 0 10 -7 0 -8 5 -6 11 5 5 9 15 17 21 17 7 0 6 -6 -2 -15 -7
-9 -10 -18 -6 -22 3 -3 6 -1 6 5 0 7 5 11 12 10 7 -2 13 3 14 10 3 26 5 27 14
12 9 -13 10 -13 10 0 0 13 1 13 10 0 5 -8 10 -10 10 -5 0 6 -5 17 -10 25 -9
13 -10 13 -10 0 0 -13 -1 -13 -10 0 -5 8 -10 10 -10 3z m-75 -62 c3 -5 1 -12
-4 -15 -5 -3 -11 1 -15 9 -6 16 9 21 19 6z"/>
<path d="M845 94 c11 -8 18 -18 15 -21 -3 -4 10 -7 27 -8 18 -1 36 -4 39 -8 4
-4 13 -2 20 4 9 8 15 5 23 -9 6 -11 7 -23 3 -27 -4 -5 -2 -5 5 -1 7 4 10 14 7
24 -5 14 -3 14 10 -2 15 -19 16 -19 16 -2 0 15 3 16 15 6 8 -7 15 -9 15 -4 0
5 5 2 10 -6 6 -10 10 -11 10 -2 0 6 9 12 20 12 11 0 20 -6 20 -12 0 -8 3 -9 8
-3 4 6 16 12 26 13 18 3 18 2 6 -15 -14 -17 -14 -17 6 0 11 9 23 15 26 12 2
-3 5 2 5 10 0 8 -4 12 -8 9 -4 -2 -10 0 -13 5 -4 5 -18 7 -34 5 -35 -6 -53 -7
-77 -1 -11 2 -26 0 -32 -6 -9 -6 -18 -5 -30 4 -9 8 -18 13 -20 12 -1 -2 -4 -3
-5 -2 -23 7 -45 6 -55 -3 -9 -7 -13 -7 -13 1 0 7 -4 10 -9 7 -5 -3 -14 1 -21
9 -7 8 -18 15 -24 15 -6 0 -2 -7 9 -16z m99 -26 c-3 -4 -11 -5 -19 -1 -21 7
-19 12 4 10 11 0 18 -5 15 -9z m112 -10 c3 -4 -1 -5 -10 -4 -8 1 -18 5 -22 8
-3 4 1 5 10 4 8 -1 18 -5 22 -8z m74 4 c0 -5 -7 -9 -15 -9 -8 0 -12 4 -9 9 7
10 24 10 24 0z"/>
<path d="M1209 77 c-9 -7 -16 -20 -16 -30 0 -16 2 -16 18 -1 16 14 18 14 28
-3 6 -10 11 -13 11 -7 0 6 -7 17 -15 24 -8 7 -12 16 -9 21 7 12 2 11 -17 -4z"/>
</g>
</svg>
